<svg width="414" height="356" viewBox="0 0 414 356" fill="none" xmlns="http://www.w3.org/2000/svg">
<g clip-path="url(#clip0_58_224)">
<path d="M36.8313 156.656C19.7597 149.485 6.07456 136.06 -1.42265 119.13C-5.61727 109.539 -7.66516 99.1382 -8.83117 88.7353C-9.97515 78.5292 -10.2087 67.7632 -5.81636 58.4798C-3.41145 53.397 0.269207 49.0238 4.86692 45.7865C9.46463 42.5492 14.8226 40.5582 20.4186 40.0075C26.0147 39.4568 31.658 40.3651 36.7985 42.6441C41.9391 44.923 46.4017 48.4948 49.7513 53.0113C52.6343 56.8988 54.6614 61.5634 54.7131 66.403C54.8216 76.5545 46.659 84.7013 43.0781 94.2008C39.3776 104.018 40.7113 114.894 41.3404 125.367C41.9695 135.839 41.5708 147.192 35.2166 155.54" fill="#F2F2F2"/>
<path d="M343.009 285.019C361.037 280.796 376.77 269.841 386.986 254.398C392.721 245.641 396.475 235.728 399.36 225.665C402.19 215.793 404.216 205.217 401.433 195.331C399.91 189.918 397.01 184.992 393.017 181.033C389.023 177.075 384.073 174.218 378.647 172.741C373.221 171.265 367.505 171.22 362.056 172.609C356.608 173.999 351.612 176.776 347.556 180.671C344.065 184.023 341.288 188.284 340.43 193.047C338.63 203.039 345.32 212.433 347.266 222.396C349.277 232.693 346.148 243.195 343.781 253.416C341.414 263.636 339.914 274.896 344.787 284.187" fill="#F2F2F2"/>
<path d="M205.515 268.717C179.818 268.799 154.816 260.372 134.411 244.751C114.432 229.487 99.8356 208.254 92.7398 184.134L93.7559 183.838C108.106 233.191 154.063 267.659 205.515 267.659C220.9 267.688 236.135 264.648 250.33 258.717L250.738 259.694C236.414 265.679 221.04 268.746 205.515 268.717Z" fill="#E6E6E6"/>
<path d="M316.602 116.504C301.338 67.7013 256.696 34.9121 205.515 34.9121C190.35 34.8846 175.326 37.8385 161.3 43.606L160.897 42.6276C179.661 34.9432 200.092 32.2403 220.208 34.7813C240.324 37.3223 259.441 45.0208 275.704 57.1296C295.497 71.9577 310.152 92.6094 317.612 116.188L316.602 116.504Z" fill="#E6E6E6"/>
<path d="M348.338 305.745C300.211 305.745 261.057 266.592 261.057 218.465C261.057 170.338 300.211 131.185 348.338 131.185C396.464 131.185 435.618 170.338 435.618 218.465C435.618 266.592 396.464 305.745 348.338 305.745ZM348.338 132.243C300.795 132.243 262.115 170.922 262.115 218.465C262.115 266.008 300.795 304.687 348.338 304.687C395.881 304.687 434.56 266.008 434.56 218.465C434.56 170.922 395.881 132.243 348.338 132.243Z" fill="#3F3D56"/>
<path d="M64.2802 174.56C16.1537 174.56 -23 135.407 -23 87.2802C-23 39.1537 16.1537 0 64.2802 0C112.407 0 151.56 39.1537 151.56 87.2802C151.56 135.407 112.407 174.56 64.2802 174.56ZM64.2802 1.05794C16.7371 1.05794 -21.9421 39.7371 -21.9421 87.2802C-21.9421 134.823 16.7371 173.502 64.2802 173.502C111.823 173.502 150.502 134.823 150.502 87.2802C150.502 39.7371 111.823 1.05794 64.2802 1.05794Z" fill="#3F3D56"/>
<path d="M57.494 87.771L49.7866 102.74L57.3968 107.103C57.3968 107.103 62.6175 90.2884 62.7712 89.6503C63.5584 89.3286 64.2294 88.7755 64.6954 88.0641C65.1615 87.3527 65.4005 86.5167 65.381 85.6665C65.3615 84.8163 65.0844 83.992 64.5862 83.3028C64.0881 82.6135 63.3925 82.0917 62.5913 81.8064C61.7902 81.5211 60.9213 81.4858 60.0997 81.705C59.278 81.9243 58.5422 82.3878 57.9898 83.0343C57.4373 83.6808 57.094 84.4798 57.0055 85.3256C56.917 86.1714 57.0873 87.0241 57.494 87.771V87.771Z" fill="#A0616A"/>
<path d="M17.9399 89.807C21.378 102.545 33.7356 110.635 43.9973 120.334C45.2609 120.778 46.6031 120.953 47.9382 120.848C49.2732 120.743 50.5717 120.361 51.7506 119.725C52.9295 119.09 53.9628 118.216 54.7846 117.158C55.6063 116.101 56.1984 114.884 56.5229 113.585L59.9816 100.049L51.1909 99.8142L47.5529 103.768L35.7818 95.38L17.9399 89.807Z" fill="#3F3D56"/>
<path d="M335.362 232.027C336.855 232.124 338.25 232.801 339.252 233.911C340.253 235.022 340.782 236.48 340.725 237.975C340.709 238.279 340.667 238.58 340.601 238.877L357.55 249.555L348.18 253.699L333.521 242.924C332.312 242.554 331.259 241.795 330.526 240.764C329.794 239.733 329.423 238.489 329.473 237.225C329.508 236.506 329.684 235.801 329.991 235.151C330.298 234.5 330.731 233.916 331.264 233.433C331.797 232.949 332.42 232.575 333.097 232.332C333.774 232.089 334.493 231.982 335.212 232.017C335.262 232.02 335.312 232.023 335.362 232.027Z" fill="#FFB6B6"/>
<path d="M351.706 244.702L347.506 253.369L364.114 264.057C365.296 264.824 366.655 265.276 368.06 265.37C369.466 265.464 370.872 265.197 372.146 264.595C373.694 263.854 374.96 262.629 375.752 261.106C376.544 259.583 376.819 257.844 376.536 256.151L371.147 225.384C370.785 223.231 369.612 221.298 367.869 219.984C366.126 218.669 363.945 218.072 361.776 218.316C359.642 218.55 357.688 219.621 356.344 221.295C354.999 222.969 354.375 225.109 354.609 227.243C354.618 227.327 354.628 227.41 354.64 227.493C354.681 227.789 354.737 228.082 354.81 228.372L360.693 250.253L351.706 244.702Z" fill="#6C63FF"/>
<path d="M336.611 248.216L330.357 232.077C330.143 231.525 330.158 230.91 330.397 230.368C330.636 229.827 331.08 229.402 331.632 229.187L335.149 227.824C335.702 227.611 336.316 227.625 336.858 227.864C337.4 228.103 337.824 228.548 338.039 229.1L344.294 245.238C344.507 245.79 344.492 246.405 344.253 246.947C344.014 247.488 343.57 247.913 343.018 248.128L339.501 249.491C338.948 249.704 338.334 249.69 337.792 249.451C337.25 249.212 336.826 248.767 336.611 248.216Z" fill="#3F3D56"/>
<path d="M332.363 229.851C332.065 229.967 331.826 230.195 331.697 230.487C331.568 230.779 331.56 231.11 331.675 231.408L337.93 247.547C338.045 247.844 338.274 248.083 338.566 248.212C338.858 248.341 339.189 248.349 339.487 248.234L343.004 246.871C343.302 246.755 343.541 246.526 343.67 246.234C343.799 245.942 343.807 245.611 343.692 245.314L337.437 229.175C337.322 228.878 337.093 228.638 336.801 228.509C336.509 228.381 336.178 228.373 335.88 228.488L332.363 229.851Z" fill="#6C63FF"/>
<path d="M350.526 281.89H374.278V258.138H350.526V281.89Z" fill="#FFB8B8"/>
<path d="M294.197 328.091L285.126 325.038L280.074 349.731L286.221 351.799L294.197 328.091Z" fill="#FFB6B6"/>
<path d="M310.285 323.393L300.97 325.595L309.73 349.228L316.041 347.735L310.285 323.393Z" fill="#FFB6B6"/>
<path d="M373.426 288.096C378.187 319.834 314.789 301.07 314.789 301.07L294.912 328.491L283.274 326.375C283.274 326.375 288.511 309.913 297.862 287.845C302.015 278.045 349.172 280.44 349.172 280.44L350.152 272.755L377.129 272.226L373.426 288.096Z" fill="#2F2E41"/>
<path d="M312.788 294.261L295.522 294.658C298.29 318.465 300.73 327.962 300.73 327.962L310.781 324.788L312.788 294.261Z" fill="#2F2E41"/>
<path d="M359.857 219.54L364.638 213.394L371.458 213.099L372.138 218.879L375.518 220.437C378.892 233.256 379.413 246.658 377.044 259.701C376.591 260.127 376.26 260.666 376.086 261.263C375.911 261.86 375.898 262.493 376.05 263.097L376.269 263.97L376.249 264.002C375.53 265.136 375.286 266.508 375.569 267.821L377.183 270.689C377.762 271.72 378.11 272.865 378.202 274.044C378.293 275.223 378.127 276.408 377.715 277.517C377.302 278.625 376.653 279.63 375.813 280.463C374.973 281.295 373.961 281.934 372.849 282.336C362.929 285.931 353.63 287.271 346.751 277.181L344.588 242.02L359.857 219.54Z" fill="#6C63FF"/>
<path d="M364.866 215.026C371.83 215.026 377.475 209.381 377.475 202.417C377.475 195.453 371.83 189.807 364.866 189.807C357.901 189.807 352.256 195.453 352.256 202.417C352.256 209.381 357.901 215.026 364.866 215.026Z" fill="#FFB8B8"/>
<path d="M371.196 187.216C376.535 187.319 380.769 192.271 380.654 198.278C384.605 202.4 383.298 207.445 379.997 212.839C373.958 213.54 372.548 213.832 367.252 215.992L366.554 212.732L364.973 216.978C363.627 217.598 362.291 218.279 360.965 219.021C360.013 214.651 360.249 210.404 362.809 206.705C365.084 203.418 359.549 199.516 355.59 200.068L355.648 197.049L354.653 200.05C353.11 201.184 351.403 200.773 349.653 199.954V199.954C346.814 185.201 368.791 181.166 371.196 187.216Z" fill="#2F2E41"/>
<path d="M289.015 355.975L284.973 355.447L284.75 351.537L282.404 355.111L271.685 353.711C271.171 353.644 270.692 353.415 270.318 353.056C269.944 352.697 269.694 352.229 269.605 351.718C269.517 351.208 269.593 350.682 269.824 350.218C270.055 349.754 270.429 349.377 270.889 349.14L280.222 344.346L280.726 340.489L289.659 342.202L289.015 355.975Z" fill="#2F2E41"/>
<path d="M318.36 353.749L314.317 354.269L313.105 350.546L311.748 354.6L301.026 355.98C300.512 356.046 299.99 355.946 299.537 355.695C299.084 355.444 298.723 355.054 298.507 354.583C298.291 354.112 298.231 353.584 298.336 353.077C298.441 352.57 298.706 352.109 299.091 351.763L306.892 344.747L306.396 340.889L315.471 340.267L318.36 353.749Z" fill="#2F2E41"/>
<path d="M336.883 234.977C338.375 235.074 339.771 235.751 340.772 236.862C341.774 237.972 342.302 239.43 342.246 240.925C342.229 241.229 342.188 241.53 342.122 241.827L359.071 252.505L349.7 256.649L335.042 245.874C333.832 245.505 332.779 244.745 332.047 243.714C331.314 242.683 330.944 241.439 330.993 240.175C331.028 239.456 331.204 238.751 331.512 238.101C331.819 237.45 332.251 236.866 332.784 236.383C333.317 235.899 333.94 235.525 334.618 235.282C335.295 235.04 336.014 234.933 336.732 234.967C336.783 234.97 336.833 234.973 336.883 234.977Z" fill="#FFB6B6"/>
<path d="M353.227 247.652L349.026 256.319L365.635 267.007C366.817 267.774 368.175 268.226 369.581 268.32C370.986 268.414 372.393 268.147 373.666 267.545C375.215 266.804 376.48 265.579 377.272 264.056C378.064 262.533 378.34 260.794 378.057 259.101L372.668 228.334C372.306 226.181 371.133 224.248 369.39 222.934C367.647 221.619 365.466 221.022 363.296 221.266C362.24 221.382 361.216 221.704 360.284 222.216C359.352 222.727 358.53 223.416 357.864 224.245C357.199 225.074 356.703 226.026 356.405 227.047C356.107 228.067 356.014 229.136 356.129 230.193C356.138 230.277 356.149 230.36 356.161 230.443C356.201 230.739 356.258 231.032 356.33 231.322L362.214 253.203L353.227 247.652Z" fill="#6C63FF"/>
<path d="M35.4063 245.98L40.7341 248.383L52.5397 228.977L44.6766 225.43L35.4063 245.98Z" fill="#A0616A"/>
<path d="M32.7112 251.453L49.0943 258.844L49.1878 258.636C49.9507 256.945 50.0106 255.02 49.3543 253.285C48.698 251.55 47.3792 250.146 45.6881 249.383L45.6877 249.383L43.7195 245.762L37.1116 245.514L35.6815 244.869L32.7112 251.453Z" fill="#2F2E41"/>
<path d="M101.392 219.589L107.019 218.01L103.604 195.553L95.2986 197.884L101.392 219.589Z" fill="#A0616A"/>
<path d="M102.842 225.515L120.146 220.657L120.085 220.438C119.583 218.652 118.393 217.138 116.775 216.23C115.157 215.321 113.245 215.092 111.459 215.594L111.458 215.594L107.624 214.083L102.4 218.137L100.89 218.561L102.842 225.515Z" fill="#2F2E41"/>
<path d="M16.2276 153.971C16.3715 158.134 25.2253 169.366 29.8818 170.976C30.6733 171.25 31.1358 171.401 31.1358 171.401L32.7565 170.911L52.3829 164.973C55.8195 166.995 66.0712 168.023 74.483 168.536C81.1782 168.944 84.9101 172.445 84.9101 172.445C86.8853 187.466 92.5795 198.417 99.1461 211.877L107.027 210.506L99.5818 160.371C99.4211 159.289 98.9457 158.277 98.2148 157.462C97.4839 156.648 96.5298 156.066 95.4709 155.789L41.9152 141.78C41.9152 141.78 38.9617 141.245 32.7325 144.25C22.4774 149.198 16.1248 150.942 16.2276 153.971Z" fill="#2F2E41"/>
<path d="M26.4611 153.165C24.665 156.924 27.3267 170.976 30.712 174.556L31.6106 175.167L31.9145 175.325C33.9452 182.194 55.7378 202.285 55.7378 202.285C48.3767 211.663 41.8167 223.103 38.8896 235.921L47.4013 239.031L71.3607 203.263C71.9883 202.326 72.3175 201.221 72.3052 200.094C72.2929 198.966 71.9395 197.869 71.2916 196.946L61.5171 183.023L45.59 152.172C34.2091 151.821 27.7696 150.432 26.4611 153.165Z" fill="#2F2E41"/>
<path d="M16.5479 155.608C16.5215 155.608 15.8976 153.975 15.885 153.971C15.6729 153.912 12.8012 153.628 13.447 148.874L14.2733 143.642L13.4667 139.022L12.1099 137.665L14.2905 135.484L12.9541 125.595L12.441 105.794C11.1533 98.9928 11.4896 92.7721 17.7276 89.7765L24.8792 83.1433L33.0169 83.0448L42.2493 88.5181L46.7224 97.4356L48.4574 121.603L49.7529 124.626L49.6419 124.726C49.6333 124.734 48.7703 125.514 48.3826 125.944C48.1948 126.21 48.5471 128.202 48.9822 129.893L49.5401 134.068L48.1341 135.073L49.9622 137.232L54.9458 145.656L54.6472 145.581C54.3108 145.498 51.1768 150.202 16.7782 155.433C16.6194 155.457 16.6139 155.608 16.5479 155.608Z" fill="#3F3D56"/>
<path d="M55.9365 103.304L53.0888 101.818C52.6421 101.584 52.3063 101.183 52.1551 100.702C52.0039 100.221 52.0498 99.6994 52.2826 99.2521L59.1004 86.1862C59.3342 85.7394 59.7356 85.4036 60.2166 85.2524C60.6977 85.1013 61.219 85.1471 61.6663 85.3799L64.514 86.8658C64.9607 87.0995 65.2966 87.501 65.4477 87.982C65.5989 88.4631 65.553 88.9844 65.3202 89.4317L58.5024 102.498C58.2686 102.944 57.8672 103.28 57.3862 103.431C56.9051 103.583 56.3838 103.537 55.9365 103.304Z" fill="#3F3D56"/>
<path d="M60.9854 85.8724C60.7444 85.747 60.4634 85.7223 60.2042 85.8037C59.945 85.8852 59.7287 86.0661 59.6027 86.3069L52.7848 99.3728C52.6594 99.6139 52.6347 99.8948 52.7162 100.154C52.7976 100.413 52.9786 100.63 53.2193 100.756L56.067 102.241C56.308 102.367 56.589 102.392 56.8482 102.31C57.1074 102.229 57.3237 102.048 57.4497 101.807L64.2676 88.741C64.393 88.5 64.4177 88.219 64.3362 87.9598C64.2548 87.7006 64.0738 87.4843 63.8331 87.3583L60.9854 85.8724Z" fill="#6C63FF"/>
<path d="M30.7817 81.2611C37.2076 81.2611 42.4169 76.0519 42.4169 69.6259C42.4169 63.2 37.2076 57.9908 30.7817 57.9908C24.3558 57.9908 19.1466 63.2 19.1466 69.6259C19.1466 76.0519 24.3558 81.2611 30.7817 81.2611Z" fill="#A0616A"/>
<path d="M25.0592 77.1199C24.5491 76.7142 23.9127 76.5005 23.2612 76.5161C23.059 76.5493 22.8663 76.6251 22.6956 76.7384C22.5249 76.8517 22.3803 77 22.2712 77.1734C22.2106 77.2496 22.132 77.3095 22.0424 77.3477C21.9528 77.3858 21.8551 77.4009 21.7581 77.3917C20.5166 77.437 17.8704 75.1338 17.6895 70.6899C17.6035 68.5779 16.3398 65.004 18.3515 63.0685C18.4863 62.2874 20.0571 54.2139 27.1379 53.9914C34.3872 53.7611 39.2129 55.2173 40.3722 57.9801C41.1772 60.1736 41.7893 62.4332 42.2013 64.7332L42.4444 66.1007L41.8764 64.8332C41.8657 64.8095 40.8298 62.5401 38.9086 61.7831C38.8775 62.1525 38.7836 62.5138 38.6309 62.8515C38.004 64.21 36.4238 65.0966 34.6051 65.1103C33.3483 65.0716 32.1091 64.8051 30.9475 64.3238C31.079 64.5136 31.1529 64.7374 31.1601 64.9682C31.1673 65.199 31.1077 65.427 30.9883 65.6246C30.8689 65.8223 30.6949 65.9812 30.4873 66.0823C30.2797 66.1833 30.0472 66.2221 29.818 66.1941L29.4817 66.1523C29.3758 66.139 29.2685 66.1633 29.1786 66.2209C29.0887 66.2785 29.0217 66.3657 28.9894 66.4675C28.9571 66.5692 28.9614 66.6791 29.0016 66.778C29.0418 66.8769 29.1154 66.9587 29.2095 67.009L29.5056 67.1673L29.1463 67.3411C27.6998 67.9864 26.5079 69.0929 25.7571 70.4875C25.0062 71.8821 24.7386 73.4862 24.9961 75.049L25.4151 77.4056L25.0592 77.1199Z" fill="#2F2E41"/>
<path d="M209.276 256.91C208.958 256.925 208.643 256.841 208.374 256.671C208.105 256.5 207.895 256.251 207.772 255.958C207.649 255.664 207.619 255.339 207.687 255.028C207.755 254.717 207.917 254.434 208.151 254.218L208.257 253.794C208.243 253.76 208.229 253.727 208.215 253.693C207.894 252.936 207.357 252.29 206.671 251.837C205.985 251.384 205.18 251.144 204.358 251.147C203.535 251.151 202.732 251.397 202.05 251.854C201.367 252.312 200.834 252.962 200.519 253.721C199.261 256.753 197.658 259.789 197.264 262.994C197.09 264.411 197.163 265.847 197.48 267.239C194.524 260.79 192.989 253.782 192.979 246.688C192.979 244.908 193.078 243.129 193.276 241.36C193.439 239.91 193.666 238.47 193.957 237.04C195.541 229.284 198.943 222.013 203.883 215.826C206.274 214.522 208.207 212.516 209.423 210.078C209.863 209.202 210.174 208.267 210.347 207.302C210.077 207.337 209.803 207.359 209.533 207.377C209.449 207.381 209.361 207.386 209.277 207.39L209.245 207.392C208.949 207.405 208.655 207.332 208.399 207.182C208.143 207.033 207.935 206.812 207.802 206.547C207.668 206.282 207.614 205.984 207.646 205.689C207.678 205.394 207.794 205.115 207.981 204.884C208.098 204.741 208.214 204.598 208.331 204.454C208.508 204.233 208.689 204.017 208.866 203.796C208.886 203.775 208.905 203.752 208.923 203.729C209.127 203.477 209.33 203.23 209.533 202.978C209.162 202.401 208.663 201.919 208.074 201.567C206.036 200.373 203.224 201.2 201.752 203.044C200.275 204.888 199.996 207.474 200.509 209.778C201.014 211.738 201.848 213.598 202.976 215.278C202.866 215.42 202.751 215.557 202.64 215.698C200.62 218.296 198.859 221.086 197.382 224.028C197.741 220.733 197.313 217.399 196.132 214.301C194.935 211.414 192.692 208.983 190.717 206.487C188.344 203.489 183.479 204.797 183.061 208.597C183.057 208.634 183.053 208.671 183.049 208.708C183.342 208.873 183.629 209.049 183.91 209.235C184.263 209.471 184.537 209.808 184.695 210.202C184.853 210.596 184.889 211.028 184.797 211.443C184.705 211.857 184.49 212.234 184.181 212.525C183.871 212.815 183.481 213.005 183.061 213.07L183.018 213.076C183.122 214.134 183.307 215.182 183.571 216.211C184.334 219.085 185.683 221.77 187.532 224.098C189.382 226.426 191.692 228.347 194.319 229.741C194.492 229.829 194.66 229.917 194.832 230.001C193.349 234.205 192.418 238.584 192.064 243.027C191.864 245.649 191.876 248.282 192.1 250.902L192.086 250.809C191.52 247.896 189.966 245.267 187.687 243.367C184.301 240.586 179.518 239.562 175.866 237.327C175.478 237.078 175.026 236.945 174.565 236.943C174.104 236.942 173.652 237.073 173.263 237.32C172.873 237.568 172.563 237.921 172.368 238.339C172.172 238.757 172.101 239.222 172.162 239.68C172.167 239.712 172.172 239.745 172.177 239.777C172.721 239.999 173.251 240.254 173.764 240.542C174.057 240.708 174.344 240.883 174.625 241.069C174.978 241.305 175.252 241.642 175.41 242.036C175.568 242.43 175.604 242.863 175.512 243.277C175.42 243.692 175.205 244.069 174.896 244.359C174.586 244.649 174.195 244.839 173.776 244.904L173.733 244.911C173.702 244.915 173.675 244.919 173.644 244.924C174.575 247.145 175.88 249.19 177.504 250.968C179.51 253.121 181.935 254.841 184.63 256.023C187.324 257.205 190.232 257.825 193.174 257.843H193.178C193.977 261.314 195.134 264.693 196.632 267.924H208.967C209.012 267.787 209.051 267.646 209.091 267.509C207.949 267.58 206.803 267.512 205.678 267.305C206.593 266.182 207.508 265.05 208.424 263.927C208.444 263.906 208.463 263.884 208.481 263.861C208.945 263.286 209.414 262.716 209.878 262.141L209.878 262.14C209.903 260.378 209.701 258.621 209.277 256.91L209.276 256.91Z" fill="#E6E6E6"/>
<path d="M268.573 65.6279C268.811 65.8396 268.979 66.1192 269.052 66.4291C269.126 66.739 269.103 67.064 268.986 67.3602C268.869 67.6564 268.663 67.9095 268.398 68.0851C268.132 68.2607 267.819 68.3504 267.5 68.342L267.129 68.5708C267.115 68.6048 267.102 68.6389 267.088 68.673C266.789 69.439 266.723 70.2762 266.899 71.0795C267.074 71.8828 267.483 72.6163 268.074 73.188C268.665 73.7597 269.411 74.144 270.22 74.2927C271.029 74.4413 271.863 74.3477 272.619 74.0236C275.636 72.7313 278.903 71.6752 281.423 69.6553C282.536 68.762 283.486 67.6823 284.23 66.4644C281.846 73.1456 278.054 79.2361 273.11 84.3231C271.868 85.5983 270.555 86.8031 269.179 87.9318C268.049 88.8561 266.882 89.7289 265.676 90.55C259.127 94.9991 251.617 97.8313 243.761 98.814C241.138 98.0795 238.353 98.1666 235.782 99.0635C234.855 99.3836 233.979 99.8361 233.182 100.407C233.4 100.57 233.612 100.745 233.817 100.921C233.88 100.977 233.947 101.035 234.01 101.091L234.034 101.112C234.255 101.309 234.415 101.566 234.494 101.852C234.573 102.138 234.567 102.441 234.478 102.724C234.388 103.007 234.219 103.258 233.991 103.447C233.762 103.636 233.483 103.755 233.189 103.79C233.005 103.811 232.822 103.832 232.638 103.853C232.357 103.888 232.076 103.917 231.796 103.952C231.766 103.953 231.737 103.955 231.708 103.959C231.386 103.998 231.068 104.033 230.746 104.072C230.61 104.743 230.631 105.438 230.807 106.1C231.433 108.378 234.024 109.748 236.366 109.455C238.71 109.166 240.715 107.508 241.955 105.5C242.962 103.745 243.663 101.83 244.027 99.8394C244.205 99.8152 244.383 99.7973 244.561 99.7731C247.822 99.3227 251.03 98.5539 254.141 97.4776C251.583 99.5871 249.563 102.274 248.247 105.316C247.089 108.219 246.998 111.526 246.671 114.692C246.278 118.495 250.675 120.954 253.627 118.524C253.655 118.5 253.684 118.477 253.712 118.453C253.618 118.13 253.535 117.804 253.463 117.474C253.375 117.059 253.414 116.627 253.576 116.234C253.738 115.842 254.014 115.507 254.369 115.274C254.724 115.042 255.141 114.922 255.566 114.93C255.99 114.938 256.402 115.075 256.748 115.321L256.783 115.346C257.447 114.516 258.046 113.637 258.576 112.716C260.035 110.125 260.943 107.261 261.244 104.302C261.544 101.344 261.23 98.3558 260.322 95.5246C260.26 95.341 260.201 95.1603 260.136 94.9798C264.132 93.0048 267.855 90.5186 271.21 87.5836C273.183 85.8462 275.013 83.952 276.681 81.9197L276.625 81.9954C274.997 84.4765 274.276 87.4434 274.582 90.395C275.065 94.7496 277.776 98.8214 278.831 102.972C278.935 103.421 279.166 103.831 279.495 104.154C279.825 104.477 280.24 104.699 280.691 104.793C281.143 104.888 281.612 104.851 282.043 104.688C282.475 104.525 282.851 104.242 283.126 103.872C283.145 103.845 283.165 103.819 283.184 103.792C282.949 103.253 282.747 102.7 282.581 102.136C282.486 101.813 282.403 101.486 282.332 101.157C282.244 100.742 282.283 100.31 282.445 99.9171C282.606 99.5246 282.883 99.19 283.238 98.9572C283.593 98.7245 284.01 98.6044 284.434 98.6128C284.859 98.6211 285.271 98.7575 285.617 99.0041L285.652 99.0294C285.677 99.0478 285.699 99.0631 285.725 99.0815C286.609 96.8415 287.101 94.466 287.179 92.0591C287.245 89.1174 286.709 86.1932 285.605 83.4659C284.5 80.7386 282.85 78.2656 280.756 76.1986L280.753 76.1955C282.604 73.1525 284.133 69.9253 285.316 66.5661L276.482 57.9561C276.355 58.0234 276.228 58.097 276.103 58.1674C276.971 58.9129 277.744 59.7619 278.406 60.6954C276.967 60.8609 275.521 61.0327 274.082 61.1981C274.053 61.1989 274.023 61.2013 273.994 61.2055C273.261 61.2931 272.527 61.3744 271.793 61.462L271.793 61.4623C270.545 62.7068 269.463 64.1067 268.573 65.6275L268.573 65.6279Z" fill="#E6E6E6"/>
<path d="M55.903 100.157L44.779 112.796L51.0961 118.882C51.0961 118.882 60.2582 103.848 60.5629 103.266C61.4048 103.146 62.1904 102.773 62.8157 102.197C63.4411 101.621 63.8768 100.868 64.0651 100.039C64.2535 99.2096 64.1856 98.3427 63.8705 97.5528C63.5555 96.7629 63.008 96.0873 62.3006 95.6153C61.5932 95.1433 60.7591 94.8972 59.9088 94.9095C59.0585 94.9218 58.2319 95.192 57.5385 95.6843C56.8451 96.1766 56.3174 96.8678 56.0254 97.6665C55.7334 98.4652 55.6907 99.3338 55.903 100.157Z" fill="#A0616A"/>
<path d="M17.0459 92.4894C17.275 105.681 27.2875 116.54 34.8752 128.448C35.9926 129.186 37.2517 129.683 38.572 129.907C39.8924 130.13 41.2449 130.076 42.543 129.747C43.8412 129.419 45.0565 128.823 46.1112 127.998C47.166 127.172 48.0369 126.136 48.6684 124.955L55.3223 112.672L46.8542 110.301L42.3621 113.248L32.9909 102.244L17.0459 92.4894Z" fill="#3F3D56"/>
</g>
<defs>
<clipPath id="clip0_58_224">
<rect width="458.618" height="356" fill="white" transform="translate(-23)"/>
</clipPath>
</defs>
</svg>
